<?xml version="1.0" encoding="iso-8859-1"?>
<!-- Generator: Adobe Illustrator 27.8.0, SVG Export Plug-In . SVG Version: 6.00 Build 0)  -->
<svg version="1.1" id="Layer_1" xmlns="http://www.w3.org/2000/svg" xmlns:xlink="http://www.w3.org/1999/xlink" x="0px" y="0px"
	 width="96px" height="96px" viewBox="0 0 96 96" enable-background="new 0 0 96 96" xml:space="preserve">
<path fill="#010101" d="M31.537,8.5C18.835,8.5,8.5,18.841,8.5,31.546V64.46c0,12.703,10.341,23.04,23.046,23.04H64.46
	c12.703,0,23.04-10.341,23.04-23.046V31.537C87.5,18.835,77.159,8.5,64.454,8.5H31.537z M71.7,21.14c1.744,0,3.16,1.416,3.16,3.16
	c0,1.744-1.416,3.16-3.16,3.16c-1.744,0-3.16-1.416-3.16-3.16C68.54,22.556,69.956,21.14,71.7,21.14z M48,27.46
	c11.329,0,20.54,9.211,20.54,20.54S59.327,68.54,48,68.54c-11.329,0-20.54-9.213-20.54-20.54S36.671,27.46,48,27.46z M48,33.78
	c-7.854,0-14.22,6.366-14.22,14.22S40.146,62.22,48,62.22S62.22,55.854,62.22,48S55.854,33.78,48,33.78z"/>
</svg>
