<?xml version="1.0" encoding="iso-8859-1"?>
<!-- Generator: Adobe Illustrator 27.8.0, SVG Export Plug-In . SVG Version: 6.00 Build 0)  -->
<svg version="1.1" id="Layer_1" xmlns="http://www.w3.org/2000/svg" xmlns:xlink="http://www.w3.org/1999/xlink" x="0px" y="0px"
	 width="96px" height="96px" viewBox="0 0 96 96" enable-background="new 0 0 96 96" xml:space="preserve">
<path fill="#010101" d="M77.853,8.818H18.147c-5.15,0-9.329,4.179-9.329,9.329v59.706c0,5.15,4.179,9.329,9.329,9.329h59.706
	c5.15,0,9.329-4.179,9.329-9.329V18.147C87.182,12.997,83.003,8.818,77.853,8.818z M33.073,38.671v35.451H21.879V38.671H33.073z
	 M21.879,28.353c0-2.612,2.239-4.609,5.597-4.609s5.467,1.996,5.597,4.609c0,2.612-2.09,4.721-5.597,4.721
	C24.118,33.073,21.879,30.965,21.879,28.353z M74.121,74.121H62.927c0,0,0-17.277,0-18.658c0-3.732-1.866-7.463-6.53-7.538h-0.149
	c-4.515,0-6.381,3.844-6.381,7.538c0,1.698,0,18.658,0,18.658H38.671V38.671h11.195v4.776c0,0,3.601-4.776,10.84-4.776
	c7.407,0,13.415,5.094,13.415,15.412V74.121z"/>
</svg>
