<?xml version="1.0" encoding="iso-8859-1"?>
<!-- Generator: Adobe Illustrator 27.8.0, SVG Export Plug-In . SVG Version: 6.00 Build 0)  -->
<svg version="1.1" id="Layer_1" xmlns="http://www.w3.org/2000/svg" xmlns:xlink="http://www.w3.org/1999/xlink" x="0px" y="0px"
	 width="96px" height="96px" viewBox="0 0 96 96" enable-background="new 0 0 96 96" xml:space="preserve">
<path fill="#010101" d="M48,8C25.909,8,8,26.001,8,48.206c0,20.158,14.773,36.801,34.022,39.709V58.862h-9.896V48.293h9.896v-7.032
	c0-11.643,5.644-16.755,15.271-16.755c4.611,0,7.049,0.344,8.204,0.501v9.225h-6.567c-4.087,0-5.515,3.894-5.515,8.284v5.777h11.978
	l-1.625,10.569H53.415V88C72.938,85.337,88,68.559,88,48.206C88,26.001,70.091,8,48,8z"/>
</svg>
